<?xml version="1.0" encoding="utf-8"?>
<!-- Generator: Adobe Illustrator 24.0.1, SVG Export Plug-In . SVG Version: 6.00 Build 0)  -->
<svg version="1.1" id="Capa_1" xmlns="http://www.w3.org/2000/svg" xmlns:xlink="http://www.w3.org/1999/xlink" x="0px" y="0px"
	 viewBox="0 0 24 24" style="enable-background:new 0 0 24 24;" xml:space="preserve">
<style type="text/css">
	.st0{fill:#E54594;}
	.st1{fill:#FFFFFF;}
</style>
<circle class="st0" cx="12" cy="12" r="11.5"/>
<g>
	<g>
		<path class="st1" d="M19,12.6c0,0.1,0,0.1,0,0.2c-0.1,0.4-0.2,0.7-0.5,0.9c-0.4,0.3-0.7,0.7-1.1,1c-0.2,0.2-0.4,0.4-0.5,0.7
			c-0.1,0.1-0.1,0.2-0.1,0.3c0,0.1,0,0.2,0,0.2c0,0.1,0.1,0.1,0.2,0.1c0.2,0.1,0.3,0.3,0.3,0.6c0,0.3,0,0.7,0,1
			c0,0.4-0.3,0.7-0.7,0.7c-1,0-2.1,0-3.1,0c-0.4,0-0.7-0.3-0.7-0.7c0-0.3,0-0.7,0-1c0-0.3,0.2-0.5,0.5-0.6c0-0.4,0-0.8,0-1.2
			c0.1-0.7,0.3-1.3,0.8-1.9c0.4-0.4,0.8-0.6,1.3-0.7c0.1,0,0.1-0.1,0.2-0.1c0.2-0.4,0.4-0.7,0.7-1.1c0.1-0.2,0.3-0.4,0.5-0.5
			c0.1,0,0.1-0.1,0.1-0.1c0.1-0.7,0.1-1.4,0.2-2.1c0-0.5,0.4-0.9,0.9-0.9c0.5,0,0.9,0.4,0.9,0.9c0.1,1.1,0.1,2.1,0.2,3.2
			c0,0.2,0,0.4,0.1,0.6C19,12.2,19,12.4,19,12.6z M16.1,15.9c0-0.5,0.2-0.9,0.5-1.2c0.2-0.2,0.3-0.3,0.5-0.5
			c0.3-0.3,0.6-0.6,0.9-0.8c0.2-0.2,0.4-0.5,0.4-0.8c0-0.1,0-0.3,0-0.4c0-0.6-0.1-1.3-0.1-1.9c0-0.6-0.1-1.3-0.1-1.9
			c0-0.2-0.2-0.4-0.4-0.4c-0.2,0-0.4,0.2-0.4,0.4c-0.1,0.7-0.1,1.4-0.2,2.1c0,0,0,0.1,0.1,0.1c0.5,0.2,0.7,0.9,0.4,1.4
			c-0.4,0.6-0.7,1.1-1.1,1.7c0,0-0.1,0.1-0.1,0.1c-0.1,0.1-0.2,0.1-0.3,0.1c-0.1-0.1-0.2-0.2-0.1-0.3c0,0,0-0.1,0.1-0.1
			c0.4-0.6,0.7-1.2,1.1-1.7c0.1-0.1,0.1-0.2,0.1-0.4c0-0.2-0.2-0.3-0.3-0.3c-0.2,0-0.3,0-0.4,0.2c-0.2,0.3-0.4,0.7-0.6,1
			c-0.2,0.3-0.4,0.5-0.7,0.5c-0.8,0.2-1.3,0.7-1.5,1.5c-0.1,0.3-0.1,0.6-0.1,1c0,0.2,0,0.5,0,0.7C14.5,15.9,15.3,15.9,16.1,15.9z
			 M14.9,17.8c0.5,0,1,0,1.5,0c0.2,0,0.2,0,0.2-0.2c0-0.3,0-0.6,0-0.8c0-0.2,0-0.2-0.2-0.2c-1,0-2,0-3,0c-0.2,0-0.2,0-0.2,0.2
			c0,0.3,0,0.6,0,0.8c0,0.2,0,0.2,0.2,0.2C13.9,17.8,14.4,17.8,14.9,17.8z"/>
	</g>
	<g>
		<path class="st1" d="M5,12.2C5,12.1,5,12.1,5,12.2C5.1,12,5.2,11.9,5.4,12c0.1,0,0.2,0.1,0.2,0.2c0,0.1,0,0.2,0,0.3
			c0,0.4,0.1,0.7,0.4,0.9c0.3,0.3,0.6,0.5,0.9,0.8c0.2,0.2,0.4,0.4,0.6,0.6c0.3,0.3,0.5,0.7,0.5,1.1c0.8,0,1.6,0,2.5,0
			c0-0.1,0-0.3,0-0.4c0-0.4,0-0.9-0.1-1.3C10,13.5,9.6,13.1,9,12.8c-0.1,0-0.1,0-0.2-0.1c-0.4-0.1-0.7-0.3-0.9-0.7
			c-0.2-0.3-0.4-0.6-0.5-0.9C7.3,11,7.1,11,6.9,11.1c-0.2,0.1-0.3,0.2-0.2,0.4c0,0.1,0.1,0.1,0.1,0.2c0.4,0.6,0.7,1.2,1.1,1.7
			c0,0.1,0.1,0.2,0.1,0.2c0,0.1-0.1,0.2-0.2,0.2c-0.1,0-0.2,0-0.3-0.1c-0.4-0.6-0.8-1.3-1.2-1.9c-0.3-0.5-0.1-1,0.4-1.3
			c0.1,0,0.1-0.1,0.1-0.2C6.7,9.7,6.6,9,6.6,8.3C6.5,8,6.3,7.9,6.1,8C5.9,8,5.8,8.2,5.8,8.3c0,0.5-0.3,3.4-0.3,3.9
			c0,0.2-0.1,0.3-0.3,0.3C5.1,12.5,5,12.4,5,12.2c0-0.4,0.2-3.4,0.3-3.9c0-0.5,0.4-0.9,0.9-0.9c0.5,0,0.9,0.4,0.9,0.9
			C7.2,9,7.2,9.7,7.3,10.4c0,0.1,0,0.1,0.1,0.2c0.2,0.1,0.4,0.2,0.5,0.4c0.2,0.4,0.5,0.7,0.7,1.1c0,0.1,0.1,0.1,0.2,0.1
			c0.5,0.1,1,0.3,1.3,0.7c0.5,0.4,0.7,1,0.8,1.6c0.1,0.4,0,0.9,0.1,1.3c0,0.1,0,0.1,0.1,0.2c0.3,0.1,0.4,0.3,0.4,0.6
			c0,0.3,0,0.7,0,1c0,0.4-0.3,0.7-0.7,0.7c-1,0-2,0-3.1,0c-0.4,0-0.7-0.3-0.7-0.7c0-0.3,0-0.6,0-0.9c0-0.3,0.1-0.5,0.4-0.6
			c0.1,0,0.1-0.1,0.1-0.2c0-0.3-0.1-0.5-0.3-0.7c-0.3-0.3-0.6-0.6-0.9-0.9c-0.2-0.2-0.4-0.3-0.6-0.5c-0.3-0.3-0.5-0.6-0.5-1.1
			c0,0,0,0,0-0.1C5,12.5,5,12.3,5,12.2z M9.1,17.8c0.5,0,1,0,1.5,0c0.2,0,0.2,0,0.2-0.2c0-0.3,0-0.6,0-0.8c0-0.2,0-0.2-0.2-0.2
			c-1,0-2,0-3,0c-0.2,0-0.2,0-0.2,0.2c0,0.3,0,0.6,0,0.9c0,0.2,0,0.2,0.2,0.2C8.1,17.8,8.6,17.8,9.1,17.8z"/>
	</g>
	<g>
		<path class="st1" d="M12,5.6c0.7-1,1.8-0.9,2.5-0.4c0.7,0.5,0.9,1.5,0.3,2.4c0,0,0,0,0.1,0.1c0.7,0.5,1,1.2,1,2c0,0.1,0,0.2,0,0.3
			c0,0.2-0.1,0.3-0.3,0.3c-0.3,0-0.7,0-1,0c0,0-0.1,0-0.1,0c0,0.3,0,0.6,0,0.8c0,0.3-0.1,0.4-0.4,0.4c-1.4,0-2.8,0-4.2,0
			c-0.3,0-0.3-0.1-0.3-0.4c0-0.3,0-0.5,0-0.8c0,0-0.1,0-0.1,0c-0.3,0-0.7,0-1,0c-0.2,0-0.3-0.1-0.3-0.2c-0.1-0.7,0.1-1.4,0.6-2
			C8.8,7.9,9,7.8,9.2,7.6C8.6,6.7,8.9,5.7,9.6,5.2C10.2,4.7,11.3,4.6,12,5.6z M13.9,11c0-0.8-0.3-1.3-0.9-1.8c-0.1,0-0.1,0-0.2,0
			c-0.5,0.3-1.1,0.3-1.7,0c-0.1,0-0.1,0-0.2,0c-0.4,0.3-0.7,0.7-0.8,1.2c0,0.2-0.1,0.4-0.1,0.6C11.4,11,12.6,11,13.9,11z M10.9,7.7
			c0,0.6,0.5,1.2,1.1,1.2c0.6,0,1.2-0.5,1.2-1.2c0-0.6-0.5-1.2-1.1-1.2C11.4,6.6,10.9,7.1,10.9,7.7z M10.3,7.7
			c0.1-0.8,0.5-1.4,1.3-1.6c-0.2-0.5-0.8-0.8-1.3-0.6C9.8,5.6,9.4,6.1,9.4,6.6C9.5,7.2,9.9,7.6,10.3,7.7z M12.4,6.1
			c0.8,0.2,1.2,0.8,1.3,1.6c0.4,0,0.8-0.5,0.9-1c0-0.6-0.4-1.1-0.9-1.2C13.2,5.3,12.6,5.6,12.4,6.1z M15.3,9.8
			C15.4,9.2,15,8.3,14.4,8c0,0-0.1,0-0.1,0c-0.2,0.1-0.4,0.1-0.6,0.2c0,0-0.1,0-0.1,0c-0.1,0.2-0.2,0.3-0.3,0.5
			c0.4,0.2,0.7,0.6,0.9,1c0,0,0.1,0.1,0.1,0.1C14.7,9.8,15,9.8,15.3,9.8z M10.6,8.8c-0.1-0.2-0.2-0.3-0.2-0.5c0,0-0.1,0-0.1-0.1
			C10.1,8.2,9.9,8.1,9.7,8C9.7,8,9.6,8,9.6,8c-0.4,0.2-0.7,0.6-0.8,1C8.7,9.3,8.6,9.6,8.7,9.8c0.3,0,0.7,0,1,0c0.1,0,0.1,0,0.2-0.1
			C10,9.5,10.2,9.3,10.3,9C10.4,8.9,10.5,8.9,10.6,8.8z"/>
	</g>
	<g>
		<path class="st1" d="M5.6,11c0,0.2-0.1,0.3-0.3,0.3c-0.1,0-0.3-0.1-0.3-0.3c0-0.1,0.1-0.3,0.3-0.3C5.5,10.7,5.6,10.8,5.6,11z"/>
	</g>
</g>
</svg>
